<svg width="15" height="14" viewBox="0 0 15 14" fill="none" xmlns="http://www.w3.org/2000/svg">
<path d="M6.23507 7.62998C7.15452 8.45963 8.26704 9.10017 9.49447 9.50661L11.155 8.33127C11.2042 8.30111 11.2626 8.28496 11.3224 8.28496C11.3822 8.28496 11.4405 8.30111 11.4898 8.33127L14.573 10.0982C14.69 10.1608 14.7891 10.2467 14.8624 10.3492C14.9357 10.4518 14.9812 10.568 14.9953 10.6888C15.0094 10.8097 14.9917 10.9318 14.9436 11.0455C14.8956 11.1592 14.8184 11.2614 14.7183 11.3441L13.2736 12.6134C13.0667 12.7953 12.8124 12.9287 12.5335 13.0018C12.2545 13.075 11.9595 13.0856 11.6748 13.0326C8.83476 12.5109 6.21707 11.289 4.12085 9.50661C2.07116 7.70648 0.652789 5.41598 0.0377852 2.91296C-0.0229692 2.66364 -0.0102889 2.4046 0.0745972 2.16092C0.159483 1.91725 0.313696 1.69721 0.522292 1.52214L2.01986 0.2371C2.11253 0.152393 2.22555 0.0874308 2.35044 0.0470787C2.47534 0.00672652 2.60888 -0.00797015 2.74107 0.00408917C2.87326 0.0161485 3.00067 0.0546513 3.11376 0.116715C3.22685 0.178778 3.32268 0.262793 3.39409 0.36247L5.44664 3.06967C5.48204 3.11218 5.50115 3.16368 5.50115 3.21658C5.50115 3.26949 5.48204 3.32099 5.44664 3.3635L4.09443 4.80917C4.56377 5.87909 5.295 6.84267 6.23507 7.62998V7.62998Z" fill="white"/>
</svg>
