<svg width="18" height="11" viewBox="0 0 18 11" fill="none" xmlns="http://www.w3.org/2000/svg">
<path d="M0.574002 1.38336L8.074 4.89283C8.326 5.01042 8.652 5.06617 8.98 5.06617C9.308 5.06617 9.634 5.01042 9.886 4.89283L17.386 1.38336C17.875 1.15427 18.337 0.263184 17.44 0.263184H0.521002C-0.375998 0.263184 0.0860016 1.15427 0.574002 1.38336ZM17.613 3.30229L9.886 6.81002C9.546 6.96506 9.308 6.98336 8.98 6.98336C8.652 6.98336 8.414 6.96506 8.074 6.81002C7.734 6.65497 0.941002 3.55315 0.386002 3.30142C-0.00399834 3.12372 1.61606e-06 3.3319 1.61606e-06 3.49218V9.84476C1.61606e-06 10.2106 0.566002 10.7158 1 10.7158H17C17.434 10.7158 18 10.2106 18 9.84476V3.49305C18 3.33277 18.004 3.12459 17.613 3.30229Z" fill="white"/>
</svg>
