<svg width="15" height="14" viewBox="0 0 15 14" fill="none" xmlns="http://www.w3.org/2000/svg">
<path d="M14.6896 6.42585L7.87425 0.14309C7.82518 0.0977306 7.76689 0.0617446 7.70273 0.0371914C7.63856 0.0126383 7.56978 0 7.50031 0C7.43084 0 7.36206 0.0126383 7.29789 0.0371914C7.23373 0.0617446 7.17544 0.0977306 7.12637 0.14309L0.311065 6.42585C0.112513 6.60902 0 6.85783 0 7.11732C0 7.65614 0.474871 8.09423 1.05895 8.09423H1.77704V12.5773C1.77704 12.8475 2.01365 13.0658 2.30652 13.0658H6.44136V9.6466H8.29452V13.0658H12.6941C12.987 13.0658 13.2236 12.8475 13.2236 12.5773V8.09423H13.9417C14.223 8.09423 14.4927 7.99196 14.6912 7.80726C15.1032 7.42565 15.1032 6.80745 14.6896 6.42585Z" fill="white"/>
</svg>
