<svg width="42" height="42" viewBox="0 0 42 42" fill="none" xmlns="http://www.w3.org/2000/svg">
<path d="M27.4466 0H14.5541C2.78903 0 0 2.78898 0 14.5539V27.4461C0 39.211 2.78903 42 14.5541 42H27.4466C39.2117 42 42.0007 39.211 42.0007 27.4461V14.5539C42.0007 2.78898 39.1842 0 27.4466 0ZM33.9067 29.9608H30.8578C29.7028 29.9608 29.3471 29.0447 27.2694 26.9395C25.4648 25.19 24.6655 24.9577 24.2205 24.9577C23.5919 24.9577 23.4134 25.1349 23.4134 25.9972V28.752C23.4134 29.491 23.1811 29.9346 21.2255 29.9346C17.9915 29.9346 14.4032 27.979 11.8872 24.3356C8.09277 18.9965 7.05459 14.9975 7.05459 14.1706C7.05459 13.7257 7.23178 13.3096 8.0862 13.3096H11.1417C11.9147 13.3096 12.2087 13.6653 12.5093 14.4922C14.0199 18.8535 16.536 22.674 17.5741 22.674C17.9574 22.674 18.1346 22.4969 18.1346 21.5191V17.0147C18.0178 14.9371 16.9245 14.7586 16.9245 14.021C16.9245 13.6653 17.2185 13.3096 17.6896 13.3096H22.4946C23.1443 13.3096 23.3832 13.6653 23.3832 14.4305V20.5072C23.3832 21.1634 23.6772 21.3957 23.8544 21.3957C24.2376 21.3957 24.5657 21.1634 25.2758 20.452C27.4703 17.9912 29.0426 14.1969 29.0426 14.1969C29.2474 13.7519 29.603 13.3359 30.3761 13.3359H33.4316C34.3477 13.3359 34.5524 13.8071 34.3477 14.4633C33.9644 16.2404 30.2252 21.5178 30.2252 21.5178C29.9036 22.0506 29.7802 22.2829 30.2252 22.8775C30.5533 23.3224 31.6203 24.2451 32.3304 25.0719C33.6363 26.555 34.6403 27.7992 34.9081 28.6602C35.2087 29.5146 34.765 29.9595 33.9027 29.9595L33.9067 29.9608Z" fill="#AC5E0E"/>
</svg>
